<?xml version="1.0" encoding="utf-8"?>
<!-- Generator: Adobe Illustrator 19.2.1, SVG Export Plug-In . SVG Version: 6.00 Build 0)  -->
<svg version="1.1" id="Layer_1" xmlns="http://www.w3.org/2000/svg" xmlns:xlink="http://www.w3.org/1999/xlink" x="0px" y="0px"
	 viewBox="0 0 552 284.7" style="enable-background:new 0 0 552 284.7;" xml:space="preserve">
<style type="text/css">
	.st0{fill:#FFFFFF;}
</style>
<g>
	<g id="letter-fill">
		<g id="he3_1_">
			<path class="st0" d="M176.6,253.2c6.4,0.4,11.6,0.8,16.8,1c8.2,0.3,16.3,0.6,24.5,0.6c10.7,0.1,16.6-5.5,17.5-16.1
				c2.4-29.1,2.2-58.2,1.3-87.2c-0.9-26.8-2.1-53.5-3.5-80.3c-0.8-15.9-2.3-31.8-3.5-48.2c-47.2,1.8-93.7,5.8-139.6,17.9
				c0.2-6.7,0.6-13,4.1-18.7c2.4-3.9,5.9-6.5,10.4-7.2c19.6-3.1,39.2-6.7,59-8.9c35.3-3.9,70.7-5.9,106.2-6.1c5.5,0,5.5,0,5.5,5.3
				c0,5.3,0,10.6,0,16.6c-7.9,0-15.6,0-23.6,0c0.6,8.9,1.2,17.2,1.7,25.4c1.6,29.4,3.6,58.8,4.7,88.3c0.9,24.7,1.1,49.5,1,74.3
				c0,11.8-1,23.7-2.2,35.5c-1.8,18.4-14.1,29.8-33.7,31.4c-9.4,0.8-18.8,0.3-28.3,0.3c-6.3,0-10.8-3.3-13.2-8.9
				C179.7,263.7,178.5,258.8,176.6,253.2z"/>
		</g>
		<g id="he2_1_">
			<path class="st0" d="M96.2,105c-4.1,1.3-7.7,2.4-11.4,3.5c-2.5-12.6,2.4-24.2,14.4-27.3c21.9-5.6,43.8-10.8,66.7-10.3
				c3.8,0.1,7.7,0.4,11.4,1.1c13.9,2.8,21.4,11,22.8,25.9c1.5,15.3,2.5,30.8,3.2,46.2c0.7,16.2,0.7,32.4,1.2,48.6
				c0.1,3.7-0.8,5-4.7,5.3c-20.5,1.6-40.9,3.3-61.4,5.5c-14.7,1.6-29.3,4.3-43.9,6.5c-0.9,0.1-1.8,0.2-3.1,0.4
				C90.6,175.3,93.5,140.5,96.2,105z M181.2,177.3c0.4-8.3,1-16.1,1.2-24c0.4-16.9,0.2-33.7-3.6-50.2c-1.9-8.3-7-12.9-15.2-12
				c-13.9,1.5-27.7,3.8-41.5,6.1c-1.1,0.2-2.7,2-2.8,3.2c-1.6,26.7-3,53.5-4.4,80.2c-0.1,1.2,0.2,2.4,0.2,3.5
				C137.3,181.7,159,179.5,181.2,177.3z"/>
		</g>
		<g id="he1_2_">
			<path class="st0" d="M74.2,0.3C81,3.1,87.7,5.9,94.2,8.6C79.7,29,65.4,49.2,51.1,69.3c0.2,0.3,0.5,0.6,0.7,0.9
				c3.9-0.3,7.9-0.6,12.2-0.9c-6.2,69.7-10.9,139-7.9,208.9c-7.8,0-15.3,0-23.1,0c-0.8-31.7-0.1-63.3,1.4-94.9
				C36,151.8,38,120.2,39,88.2c-8.8,15-17.6,29.9-26.4,44.9C0.9,127.8-3.6,112.6,3.2,102c21.5-33.5,43.4-66.8,68-98.1
				C72.2,2.7,73.1,1.5,74.2,0.3z"/>
		</g>
		<g id="s1_1_">
			<path class="st0" d="M433.8,200.2c-0.2-11.3,0.3-22.7-0.9-33.9c-1.8-16.5-7.9-31.8-16.9-45.9c-6.2-9.7-9.3-16.7-17.1-28.8
				c-0.6-1-0.9-2.1-1.4-3.1c-3-10.7-4.2-19-3.1-29.9c1-9.8,4.7-19.6,7.3-29.3c0.9-3.5,2.7-6.9,4.5-10.1c5.4-9.1,12.4-11.7,22.4-8.2
				c8.8,3.1,15,9,17.1,18.1c1.7,7.1,2.6,14.6,3.1,21.9c0.5,6.8-4,10.4-10.4,9.1c-3.5-0.7-4.8-3.3-5.6-6.1
				c-1.8-6.1-3.2-12.3-5.1-18.4c-0.7-2.2-2.6-6.5-5.3-6.1c-2.9,0.3-2.4,1.7-3.9,4.9c-0.9,2-1.4,4.2-1.9,6.4
				c-1.9,8.9-3.4,17.8-5.2,26.7c-1.1,5.7-0.2,11.2,1.8,16.4c6.2,10.3,13.4,20.1,19.8,30.2c17.4,27.5,21.7,57.6,17.4,89.3
				c-1.5,10.9-2.4,21.8-4.5,32.6c-2.5,12.4-9.1,22.6-19.6,30c-8.2,5.8-20.8,5.7-29.6-2c-12.2-10.7-15.4-24.4-16.6-39.3
				c-0.2-2.8-0.7-5.6-0.8-8.4c-0.3-5.8,3.2-9.7,9.1-10.2c5.3-0.5,9.4,2.7,10,8.3c0.8,6.2,1,12.5,1.6,18.7c0.7,6.6,1.9,11.7,7,15.7
				c3.4,2.7,7.3,2.9,10.6-0.2c5-4.8,8.6-10.6,10.1-17.3C430.3,221,431.9,210.7,433.8,200.2z"/>
		</g>
		<g id="e_2_">
			<path class="st0" d="M325.5,31c0,18.8,0,37.1,0,55.9c4.3-0.6,8.4-1.1,12.5-1.8c6.6-1.1,11.4,2.3,12.1,8.5
				c0.7,6.9-3,11.4-9.9,11.8c-5.1,0.3-10.1,0.6-15.8,0.9c-0.8,47.3-1.6,94.4-2.4,141.6c5.5,1,10.4,2,15.4,2.8
				c4.7,0.7,10.1,1.6,12.1,6c0.9,1.9,0.2,7.7-2,9.7c-5.7,5.3-8.5,5.7-16.6,4c-6-1.3-12.1-1.5-18.2-2.5c-7.2-1.2-10.3-4.8-10.1-12.1
				c0.5-19.5,1.3-39,1.8-58.5c0.3-13.4,0.2-26.8,0.5-40.2c0.6-31.9,1.5-63.8,2-95.7c0.2-12.5-0.4-25-0.8-37.5
				c-0.2-6.7,5.5-12.9,13.5-13.4c9.7-0.6,19.4-0.7,29.1-0.5c6.9,0.1,10.5,4,10.4,10.2C359,26.5,354.7,30.8,348,31
				C340.6,31.2,333.2,31,325.5,31z"/>
		</g>
		<g id="s2_3_">
			<path class="st0" d="M534.4,213.7c-0.9-11.2-1.1-22.7-3-33.8c-2.8-16.4-9.8-31.2-19.6-44.8c-6.8-9.3-14.2-18.1-20.7-27.6
				c-0.6-0.9-1.1-2-1.6-3.1c-4.6-9.2-5.9-19.2-3-29.8C489.1,65,490,54.9,492,45c0.7-3.6,2.3-7.1,3.9-10.3
				c4.8-9.4,11.7-12.4,21.9-9.5c9,2.5,15.5,8.1,18.2,17c2.1,7,3.5,14.4,4.4,21.7c0.9,6.8-3.4,10.6-9.8,9.7c-3.5-0.5-4.9-3-5.9-5.8
				c-2.1-6-4-12.1-6.2-18.1c-0.8-2.1-3-6.3-5.6-5.8c-2.8,0.5-2.3,1.8-3.6,5.1c-0.8,2.1-1.1,4.3-1.5,6.5c-1.3,9-2.3,18-3.5,26.9
				c-0.8,5.7-0.4,11.6,2.8,16.3c6.8,9.9,14.6,19.2,21.6,28.9c19.1,26.4,25.2,56.2,22.8,88.1c-0.8,10.9-1.1,21.9-2.5,32.8
				c-1.7,12.6-7.7,23.1-17.7,31.2c-7.9,6.3-20.4,6.9-29.6-0.2c-12.9-9.9-16.8-23.4-19-38.2c-0.4-2.8-1-5.5-1.3-8.3
				c-0.6-5.8,2.6-9.8,8.5-10.7c5.3-0.8,9.5,2.1,10.5,7.6c1.1,6.1,1.8,12.4,2.8,18.5c1.1,6.5,2.6,11.5,8,15.3
				c3.6,2.5,7.5,2.4,10.6-0.9c4.7-5.1,7.9-11.1,9-17.9C532.2,234.7,533.2,224.3,534.4,213.7z"/>
		</g>
	</g>
	<g id="he3">
		<path d="M176.6,253.2c6.4,0.4,11.6,0.8,16.8,1c8.2,0.3,16.3,0.6,24.5,0.6c10.7,0.1,16.6-5.5,17.5-16.1c2.4-29.1,2.2-58.2,1.3-87.2
			c-0.9-26.8-2.1-53.5-3.5-80.3c-0.8-15.9-2.3-31.8-3.5-48.2c-47.2,1.8-93.7,5.8-139.6,17.9c0.2-6.7,0.6-13,4.1-18.7
			c2.4-3.9,5.9-6.5,10.4-7.2c19.6-3.1,39.2-6.7,59-8.9c35.3-3.9,70.7-5.9,106.2-6.1c5.5,0,5.5,0,5.5,5.3c0,5.3,0,10.6,0,16.6
			c-7.9,0-15.6,0-23.6,0c0.6,8.9,1.2,17.2,1.7,25.4c1.6,29.4,3.6,58.8,4.7,88.3c0.9,24.7,1.1,49.5,1,74.3c0,11.8-1,23.7-2.2,35.5
			c-1.8,18.4-14.1,29.8-33.7,31.4c-9.4,0.8-18.8,0.3-28.3,0.3c-6.3,0-10.8-3.3-13.2-8.9C179.7,263.7,178.5,258.8,176.6,253.2z"/>
	</g>
	<g id="he2">
		<path d="M96.2,105c-4.1,1.3-7.7,2.4-11.4,3.5c-2.5-12.6,2.4-24.2,14.4-27.3c21.9-5.6,43.8-10.8,66.7-10.3
			c3.8,0.1,7.7,0.4,11.4,1.1c13.9,2.8,21.4,11,22.8,25.9c1.5,15.3,2.5,30.8,3.2,46.2c0.7,16.2,0.7,32.4,1.2,48.6
			c0.1,3.7-0.8,5-4.7,5.3c-20.5,1.6-40.9,3.3-61.4,5.5c-14.7,1.6-29.3,4.3-43.9,6.5c-0.9,0.1-1.8,0.2-3.1,0.4
			C90.6,175.3,93.5,140.5,96.2,105z M181.2,177.3c0.4-8.3,1-16.1,1.2-24c0.4-16.9,0.2-33.7-3.6-50.2c-1.9-8.3-7-12.9-15.2-12
			c-13.9,1.5-27.7,3.8-41.5,6.1c-1.1,0.2-2.7,2-2.8,3.2c-1.6,26.7-3,53.5-4.4,80.2c-0.1,1.2,0.2,2.4,0.2,3.5
			C137.3,181.7,159,179.5,181.2,177.3z"/>
	</g>
	<g id="he1_1_">
		<path d="M74.2,0.3C81,3.1,87.7,5.9,94.2,8.6C79.7,29,65.4,49.2,51.1,69.3c0.2,0.3,0.5,0.6,0.7,0.9c3.9-0.3,7.9-0.6,12.2-0.9
			c-6.2,69.7-10.9,139-7.9,208.9c-7.8,0-15.3,0-23.1,0c-0.8-31.7-0.1-63.3,1.4-94.9C36,151.8,38,120.2,39,88.2
			c-8.8,15-17.6,29.9-26.4,44.9C0.9,127.8-3.6,112.6,3.2,102c21.5-33.5,43.4-66.8,68-98.1C72.2,2.7,73.1,1.5,74.2,0.3z"/>
	</g>
	<g id="s1">
		<path d="M433.8,200.2c-0.2-11.3,0.3-22.7-0.9-33.9c-1.8-16.5-7.9-31.8-16.9-45.9c-6.2-9.7-9.3-16.7-17.1-28.8
			c-0.6-1-0.9-2.1-1.4-3.1c-3-10.7-4.2-19-3.1-29.9c1-9.8,4.7-19.6,7.3-29.3c0.9-3.5,2.7-6.9,4.5-10.1c5.4-9.1,12.4-11.7,22.4-8.2
			c8.8,3.1,15,9,17.1,18.1c1.7,7.1,2.6,14.6,3.1,21.9c0.5,6.8-4,10.4-10.4,9.1c-3.5-0.7-4.8-3.3-5.6-6.1c-1.8-6.1-3.2-12.3-5.1-18.4
			c-0.7-2.2-2.6-6.5-5.3-6.1c-2.9,0.3-2.4,1.7-3.9,4.9c-0.9,2-1.4,4.2-1.9,6.4c-1.9,8.9-3.4,17.8-5.2,26.7
			c-1.1,5.7-0.2,11.2,1.8,16.4c6.2,10.3,13.4,20.1,19.8,30.2c17.4,27.5,21.7,57.6,17.4,89.3c-1.5,10.9-2.4,21.8-4.5,32.6
			c-2.5,12.4-9.1,22.6-19.6,30c-8.2,5.8-20.8,5.7-29.6-2c-12.2-10.7-15.4-24.4-16.6-39.3c-0.2-2.8-0.7-5.6-0.8-8.4
			c-0.3-5.8,3.2-9.7,9.1-10.2c5.3-0.5,9.4,2.7,10,8.3c0.8,6.2,1,12.5,1.6,18.7c0.7,6.6,1.9,11.7,7,15.7c3.4,2.7,7.3,2.9,10.6-0.2
			c5-4.8,8.6-10.6,10.1-17.3C430.3,221,431.9,210.7,433.8,200.2z"/>
	</g>
	<g id="e_1_">
		<path d="M325.5,31c0,18.8,0,37.1,0,55.9c4.3-0.6,8.4-1.1,12.5-1.8c6.6-1.1,11.4,2.3,12.1,8.5c0.7,6.9-3,11.4-9.9,11.8
			c-5.1,0.3-10.1,0.6-15.8,0.9c-0.8,47.3-1.6,94.4-2.4,141.6c5.5,1,10.4,2,15.4,2.8c4.7,0.7,10.1,1.6,12.1,6c0.9,1.9,0.2,7.7-2,9.7
			c-5.7,5.3-8.5,5.7-16.6,4c-6-1.3-12.1-1.5-18.2-2.5c-7.2-1.2-10.3-4.8-10.1-12.1c0.5-19.5,1.3-39,1.8-58.5
			c0.3-13.4,0.2-26.8,0.5-40.2c0.6-31.9,1.5-63.8,2-95.7c0.2-12.5-0.4-25-0.8-37.5c-0.2-6.7,5.5-12.9,13.5-13.4
			c9.7-0.6,19.4-0.7,29.1-0.5c6.9,0.1,10.5,4,10.4,10.2C359,26.5,354.7,30.8,348,31C340.6,31.2,333.2,31,325.5,31z"/>
	</g>
	<g id="s2">
		<path d="M534.4,213.7c-0.9-11.2-1.1-22.7-3-33.8c-2.8-16.4-9.8-31.2-19.6-44.8c-6.8-9.3-14.2-18.1-20.7-27.6
			c-0.6-0.9-1.1-2-1.6-3.1c-4.6-9.2-5.9-19.2-3-29.8C489.1,65,490,54.9,492,45c0.7-3.6,2.3-7.1,3.9-10.3c4.8-9.4,11.7-12.4,21.9-9.5
			c9,2.5,15.5,8.1,18.2,17c2.1,7,3.5,14.4,4.4,21.7c0.9,6.8-3.4,10.6-9.8,9.7c-3.5-0.5-4.9-3-5.9-5.8c-2.1-6-4-12.1-6.2-18.1
			c-0.8-2.1-3-6.3-5.6-5.8c-2.8,0.5-2.3,1.8-3.6,5.1c-0.8,2.1-1.1,4.3-1.5,6.5c-1.3,9-2.3,18-3.5,26.9c-0.8,5.7-0.4,11.6,2.8,16.3
			c6.8,9.9,14.6,19.2,21.6,28.9c19.1,26.4,25.2,56.2,22.8,88.1c-0.8,10.9-1.1,21.9-2.5,32.8c-1.7,12.6-7.7,23.1-17.7,31.2
			c-7.9,6.3-20.4,6.9-29.6-0.2c-12.9-9.9-16.8-23.4-19-38.2c-0.4-2.8-1-5.5-1.3-8.3c-0.6-5.8,2.6-9.8,8.5-10.7
			c5.3-0.8,9.5,2.1,10.5,7.6c1.1,6.1,1.8,12.4,2.8,18.5c1.1,6.5,2.6,11.5,8,15.3c3.6,2.5,7.5,2.4,10.6-0.9c4.7-5.1,7.9-11.1,9-17.9
			C532.2,234.7,533.2,224.3,534.4,213.7z"/>
	</g>
</g>
</svg>
