<?xml version="1.0" encoding="utf-8"?>
<!-- Generator: Adobe Illustrator 16.0.0, SVG Export Plug-In . SVG Version: 6.00 Build 0)  -->
<!DOCTYPE svg PUBLIC "-//W3C//DTD SVG 1.1//EN" "http://www.w3.org/Graphics/SVG/1.1/DTD/svg11.dtd">
<svg version="1.1" id="Layer_1" xmlns="http://www.w3.org/2000/svg" xmlns:xlink="http://www.w3.org/1999/xlink" x="0px" y="0px"
	 width="718px" height="456px" viewBox="0 0 718 456" enable-background="new 0 0 718 456" xml:space="preserve">
<path id="bg-fill" fill="#3F3F3F" stroke="#3F3F3F" stroke-width="3" stroke-miterlimit="10" d="M13.699,428.171
	c0,0,6.918-93.896-2.58-415.463c0,0,473.177,19.824,687.321-0.395c0,0,4.242,421.147,11.107,433.979
	C709.549,446.292,313.112,405.396,13.699,428.171z"/>
<path id="bg-outline" display="none" fill="#3F3F3F" stroke="#3F3F3F" stroke-width="3" stroke-miterlimit="10" d="M13.699,428.171
	c0,0,6.918-93.896-2.58-415.463c0,0,473.177,19.824,687.321-0.395c0,0,4.242,421.147,11.107,433.979
	C709.549,446.292,313.112,405.396,13.699,428.171z"/>
<g id="letter-fill">
	<g id="he3_1_">
		<path fill="#FFFFFF" d="M259.953,336.309c6.384,0.404,11.584,0.841,16.792,1.035c8.158,0.31,16.32,0.59,24.482,0.64
			c10.698,0.061,16.63-5.461,17.506-16.105c2.391-29.053,2.228-58.155,1.265-87.248c-0.887-26.775-2.089-53.545-3.477-80.3
			c-0.826-15.913-2.282-31.794-3.493-48.221c-47.232,1.825-93.714,5.828-139.598,17.857c0.25-6.709,0.65-13.014,4.11-18.667
			c2.392-3.908,5.877-6.479,10.382-7.187c19.643-3.087,39.233-6.698,58.98-8.89c35.271-3.917,70.701-5.858,106.205-6.077
			c5.461-0.034,5.48,0,5.504,5.337c0.024,5.322,0.006,10.645,0.006,16.636c-7.892,0-15.621,0-23.647,0
			c0.595,8.939,1.218,17.188,1.68,25.446c1.645,29.426,3.625,58.84,4.727,88.285c0.925,24.736,1.08,49.508,1.021,74.264
			c-0.028,11.842-0.979,23.717-2.161,35.512c-1.843,18.387-14.054,29.842-33.709,31.426c-9.371,0.756-18.845,0.281-28.273,0.265
			c-6.31-0.011-10.754-3.283-13.171-8.851C263.075,346.84,261.808,341.895,259.953,336.309z"/>
	</g>
	<g id="he2_1_">
		<path fill="#FFFFFF" d="M179.595,188.179c-4.144,1.264-7.74,2.362-11.354,3.464c-2.511-12.554,2.419-24.229,14.392-27.303
			c21.942-5.632,43.829-10.844,66.663-10.257c3.812,0.098,7.677,0.355,11.405,1.104c13.857,2.785,21.379,10.969,22.842,25.922
			c1.501,15.347,2.496,30.76,3.171,46.166c0.71,16.182,0.679,32.395,1.201,48.584c0.118,3.654-0.76,5.027-4.658,5.34
			c-20.468,1.635-40.946,3.273-61.35,5.547c-14.686,1.639-29.26,4.277-43.884,6.467c-0.877,0.131-1.757,0.24-3.093,0.422
			C173.952,258.453,176.861,223.592,179.595,188.179z M264.561,260.404c0.424-8.252,1.002-16.139,1.202-24.035
			c0.425-16.855,0.182-33.691-3.646-50.235c-1.913-8.263-7.023-12.857-15.231-11.999c-13.91,1.456-27.727,3.845-41.545,6.065
			c-1.111,0.178-2.728,2.028-2.795,3.178c-1.573,26.725-2.969,53.461-4.369,80.195c-0.062,1.192,0.151,2.401,0.229,3.51
			C220.601,264.842,242.382,262.643,264.561,260.404z"/>
	</g>
	<g id="he1_2_">
		<path fill="#FFFFFF" d="M157.529,83.393c6.825,2.854,13.479,5.635,20.059,8.384c-14.501,20.404-28.8,40.523-43.099,60.642
			c0.238,0.306,0.476,0.611,0.715,0.917c3.944-0.301,7.889-0.604,12.244-0.937c-6.229,69.672-10.902,138.969-7.886,208.896
			c-7.802,0-15.255,0-23.116,0c-0.815-31.672-0.129-63.277,1.383-94.855c1.509-31.545,3.498-63.065,4.559-95.074
			c-8.813,14.96-17.625,29.919-26.435,44.872c-11.666-5.277-16.232-20.449-9.426-31.088c21.459-33.549,43.39-66.771,68.047-98.104
			C155.512,85.854,156.48,84.687,157.529,83.393z"/>
	</g>
	<g id="s1_1_">
		<path fill="#FFFFFF" d="M517.135,283.334c-0.245-11.264,0.31-22.691-0.926-33.924c-1.814-16.531-7.854-31.787-16.871-45.869
			c-6.182-9.658-9.273-16.685-17.095-28.809c-0.587-0.975-0.941-2.092-1.388-3.149c-3.045-10.744-4.195-18.998-3.104-29.902
			c0.982-9.784,4.699-19.577,7.312-29.298c0.945-3.512,2.676-6.903,4.534-10.061c5.39-9.137,12.409-11.668,22.444-8.183
			c8.797,3.052,14.979,9.042,17.136,18.108c1.701,7.145,2.572,14.551,3.116,21.893c0.505,6.815-4.036,10.355-10.364,9.116
			c-3.5-0.685-4.753-3.254-5.585-6.11c-1.778-6.117-3.219-12.336-5.097-18.421c-0.672-2.175-2.606-6.502-5.278-6.112
			c-2.857,0.306-2.42,1.673-3.869,4.909c-0.914,2.043-1.402,4.196-1.861,6.392c-1.855,8.861-3.428,17.781-5.18,26.667
			c-1.116,5.684-0.22,11.207,1.798,16.396c6.172,10.287,13.363,20.061,19.773,30.197c17.421,27.543,21.713,57.584,17.438,89.328
			c-1.462,10.859-2.418,21.82-4.534,32.551c-2.46,12.445-9.072,22.584-19.593,30.039c-8.233,5.834-20.759,5.699-29.568-2.004
			c-12.227-10.693-15.354-24.42-16.62-39.322c-0.239-2.797-0.663-5.58-0.791-8.379c-0.263-5.832,3.237-9.668,9.105-10.172
			c5.335-0.457,9.356,2.652,10.047,8.273c0.756,6.197,1.026,12.455,1.65,18.67c0.659,6.57,1.893,11.652,7.032,15.74
			c3.447,2.741,7.329,2.887,10.588-0.22c5.024-4.782,8.597-10.612,10.062-17.312C513.678,304.168,515.245,293.826,517.135,283.334z"
			/>
	</g>
	<g id="e_2_">
		<path fill="#FFFFFF" d="M408.865,114.179c0,18.833,0,37.056,0,55.932c4.332-0.607,8.438-1.104,12.516-1.772
			c6.582-1.078,11.419,2.276,12.052,8.477c0.707,6.94-3.028,11.406-9.855,11.796c-5.071,0.29-10.14,0.6-15.757,0.933
			c-0.814,47.266-1.628,94.424-2.44,141.603c5.483,1.004,10.435,2.03,15.428,2.788c4.704,0.712,10.121,1.623,12.087,5.979
			c0.87,1.93,0.24,7.707-1.996,9.672c-5.704,5.338-8.545,5.689-16.613,3.976c-5.965-1.269-12.15-1.468-18.182-2.479
			c-7.207-1.209-10.275-4.781-10.098-12.08c0.477-19.514,1.285-39.019,1.766-58.53c0.33-13.398,0.242-26.81,0.504-40.211
			c0.625-31.901,1.498-63.795,1.951-95.697c0.18-12.49-0.425-24.995-0.812-37.488c-0.207-6.65,5.519-12.893,13.526-13.36
			c9.666-0.565,19.379-0.661,29.062-0.464c6.939,0.141,10.49,4.011,10.407,10.168c-0.085,6.231-4.396,10.568-11.07,10.72
			C423.96,114.308,416.573,114.179,408.865,114.179z"/>
	</g>
	<g id="s2_3_">
		<path fill="#FFFFFF" d="M617.749,296.834c-0.928-11.229-1.07-22.668-2.986-33.807c-2.813-16.389-9.771-31.25-19.629-44.758
			c-6.758-9.264-14.241-18.146-20.737-27.597c-0.646-0.938-1.066-2.03-1.577-3.059c-4.576-9.239-5.853-19.196-2.991-29.775
			c2.619-9.685,3.498-19.826,5.517-29.688c0.73-3.562,2.251-7.053,3.916-10.318c4.822-9.447,11.677-12.401,21.904-9.533
			c8.966,2.512,15.501,8.115,18.205,17.033c2.132,7.028,3.453,14.368,4.442,21.663c0.919,6.771-3.398,10.582-9.79,9.729
			c-3.535-0.471-4.943-2.959-5.946-5.76c-2.148-5.998-3.965-12.118-6.209-18.076c-0.804-2.131-2.998-6.332-5.641-5.781
			c-2.836,0.48-2.313,1.818-3.562,5.135c-0.791,2.095-1.148,4.273-1.474,6.493c-1.312,8.957-2.337,17.957-3.545,26.932
			c-0.771,5.741-0.432,11.559,2.789,16.256c6.785,9.893,14.56,19.212,21.573,28.938c19.065,26.434,25.175,56.159,22.838,88.104
			c-0.798,10.928-1.086,21.926-2.546,32.767c-1.697,12.569-7.681,23.094-17.729,31.176c-7.864,6.321-20.375,6.949-29.635-0.203
			c-12.855-9.93-16.812-23.441-18.982-38.238c-0.408-2.776-1.001-5.528-1.298-8.315c-0.617-5.806,2.642-9.847,8.469-10.707
			c5.297-0.779,9.503,2.078,10.53,7.649c1.133,6.14,1.783,12.367,2.787,18.531c1.055,6.52,2.595,11.518,7.974,15.283
			c3.609,2.526,7.491,2.436,10.557-0.861c4.724-5.08,7.934-11.117,8.988-17.893C615.568,317.84,616.504,307.422,617.749,296.834z"/>
	</g>
</g>
<g id="he3">
	<path fill="#FFFFFF" d="M259.953,336.309c6.384,0.404,11.584,0.841,16.792,1.035c8.158,0.31,16.32,0.59,24.482,0.64
		c10.698,0.061,16.63-5.461,17.506-16.105c2.391-29.053,2.228-58.155,1.265-87.248c-0.887-26.775-2.089-53.545-3.477-80.3
		c-0.826-15.913-2.282-31.794-3.493-48.221c-47.232,1.825-93.714,5.828-139.598,17.857c0.25-6.709,0.65-13.014,4.11-18.667
		c2.392-3.908,5.877-6.479,10.382-7.187c19.643-3.087,39.233-6.698,58.98-8.89c35.271-3.917,70.701-5.858,106.205-6.077
		c5.461-0.034,5.48,0,5.504,5.337c0.024,5.322,0.006,10.645,0.006,16.636c-7.892,0-15.621,0-23.647,0
		c0.595,8.939,1.218,17.188,1.68,25.446c1.645,29.426,3.625,58.84,4.727,88.285c0.925,24.736,1.08,49.508,1.021,74.264
		c-0.028,11.842-0.979,23.717-2.161,35.512c-1.843,18.387-14.054,29.842-33.709,31.426c-9.371,0.756-18.845,0.281-28.273,0.265
		c-6.31-0.011-10.754-3.283-13.171-8.851C263.075,346.84,261.808,341.895,259.953,336.309z"/>
</g>
<g id="he2">
	<path fill="#FFFFFF" d="M179.595,188.179c-4.144,1.264-7.74,2.362-11.354,3.464c-2.511-12.554,2.419-24.229,14.392-27.303
		c21.942-5.632,43.829-10.844,66.663-10.257c3.812,0.098,7.677,0.355,11.405,1.104c13.857,2.785,21.379,10.969,22.842,25.922
		c1.501,15.347,2.496,30.76,3.171,46.166c0.71,16.182,0.679,32.395,1.201,48.584c0.118,3.654-0.76,5.027-4.658,5.34
		c-20.468,1.635-40.946,3.273-61.35,5.547c-14.686,1.639-29.26,4.277-43.884,6.467c-0.877,0.131-1.757,0.24-3.093,0.422
		C173.952,258.453,176.861,223.592,179.595,188.179z M264.561,260.404c0.424-8.252,1.002-16.139,1.202-24.035
		c0.425-16.855,0.182-33.691-3.646-50.235c-1.913-8.263-7.023-12.857-15.231-11.999c-13.91,1.456-27.727,3.845-41.545,6.065
		c-1.111,0.178-2.728,2.028-2.795,3.178c-1.573,26.725-2.969,53.461-4.369,80.195c-0.062,1.192,0.151,2.401,0.229,3.51
		C220.601,264.842,242.382,262.643,264.561,260.404z"/>
</g>
<g id="he1_1_">
	<path fill="#FFFFFF" d="M157.529,83.393c6.825,2.854,13.479,5.635,20.059,8.384c-14.501,20.404-28.8,40.523-43.099,60.642
		c0.238,0.306,0.476,0.611,0.715,0.917c3.944-0.301,7.889-0.604,12.244-0.937c-6.229,69.672-10.902,138.969-7.886,208.896
		c-7.802,0-15.255,0-23.116,0c-0.815-31.672-0.129-63.277,1.383-94.855c1.509-31.545,3.498-63.065,4.559-95.074
		c-8.813,14.96-17.625,29.919-26.435,44.872c-11.666-5.277-16.232-20.449-9.426-31.088c21.459-33.549,43.39-66.771,68.047-98.104
		C155.512,85.854,156.48,84.687,157.529,83.393z"/>
</g>
<g id="s1">
	<path fill="#FFFFFF" d="M517.135,283.334c-0.245-11.264,0.31-22.691-0.926-33.924c-1.814-16.531-7.854-31.787-16.871-45.869
		c-6.182-9.658-9.273-16.685-17.095-28.809c-0.587-0.975-0.941-2.092-1.388-3.149c-3.045-10.744-4.195-18.998-3.104-29.902
		c0.982-9.784,4.699-19.577,7.312-29.298c0.945-3.512,2.676-6.903,4.534-10.061c5.39-9.137,12.409-11.668,22.444-8.183
		c8.797,3.052,14.979,9.042,17.136,18.108c1.701,7.145,2.572,14.551,3.116,21.893c0.505,6.815-4.036,10.355-10.364,9.116
		c-3.5-0.685-4.753-3.254-5.585-6.11c-1.778-6.117-3.219-12.336-5.097-18.421c-0.672-2.175-2.606-6.502-5.278-6.112
		c-2.857,0.306-2.42,1.673-3.869,4.909c-0.914,2.043-1.402,4.196-1.861,6.392c-1.855,8.861-3.428,17.781-5.18,26.667
		c-1.116,5.684-0.22,11.207,1.798,16.396c6.172,10.287,13.363,20.061,19.773,30.197c17.421,27.543,21.713,57.584,17.438,89.328
		c-1.462,10.859-2.418,21.82-4.534,32.551c-2.46,12.445-9.072,22.584-19.593,30.039c-8.233,5.834-20.759,5.699-29.568-2.004
		c-12.227-10.693-15.354-24.42-16.62-39.322c-0.239-2.797-0.663-5.58-0.791-8.379c-0.263-5.832,3.237-9.668,9.105-10.172
		c5.335-0.457,9.356,2.652,10.047,8.273c0.756,6.197,1.026,12.455,1.65,18.67c0.659,6.57,1.893,11.652,7.032,15.74
		c3.447,2.741,7.329,2.887,10.588-0.22c5.024-4.782,8.597-10.612,10.062-17.312C513.678,304.168,515.245,293.826,517.135,283.334z"
		/>
</g>
<g id="e_1_">
	<path fill="#FFFFFF" d="M408.865,114.179c0,18.833,0,37.056,0,55.932c4.332-0.607,8.438-1.104,12.516-1.772
		c6.582-1.078,11.419,2.276,12.052,8.477c0.707,6.94-3.028,11.406-9.855,11.796c-5.071,0.29-10.14,0.6-15.757,0.933
		c-0.814,47.266-1.628,94.424-2.44,141.603c5.483,1.004,10.435,2.03,15.428,2.788c4.704,0.712,10.121,1.623,12.087,5.979
		c0.87,1.93,0.24,7.707-1.996,9.672c-5.704,5.338-8.545,5.689-16.613,3.976c-5.965-1.269-12.15-1.468-18.182-2.479
		c-7.207-1.209-10.275-4.781-10.098-12.08c0.477-19.514,1.285-39.019,1.766-58.53c0.33-13.398,0.242-26.81,0.504-40.211
		c0.625-31.901,1.498-63.795,1.951-95.697c0.18-12.49-0.425-24.995-0.812-37.488c-0.207-6.65,5.519-12.893,13.526-13.36
		c9.666-0.565,19.379-0.661,29.062-0.464c6.939,0.141,10.49,4.011,10.407,10.168c-0.085,6.231-4.396,10.568-11.07,10.72
		C423.96,114.308,416.573,114.179,408.865,114.179z"/>
</g>
<g id="s2">
	<path fill="#FFFFFF" d="M617.749,296.834c-0.928-11.229-1.07-22.668-2.986-33.807c-2.813-16.389-9.771-31.25-19.629-44.758
		c-6.758-9.264-14.241-18.146-20.737-27.597c-0.646-0.938-1.066-2.03-1.577-3.059c-4.576-9.239-5.853-19.196-2.991-29.775
		c2.619-9.685,3.498-19.826,5.517-29.688c0.73-3.562,2.251-7.053,3.916-10.318c4.822-9.447,11.677-12.401,21.904-9.533
		c8.966,2.512,15.501,8.115,18.205,17.033c2.132,7.028,3.453,14.368,4.442,21.663c0.919,6.771-3.398,10.582-9.79,9.729
		c-3.535-0.471-4.943-2.959-5.946-5.76c-2.148-5.998-3.965-12.118-6.209-18.076c-0.804-2.131-2.998-6.332-5.641-5.781
		c-2.836,0.48-2.313,1.818-3.562,5.135c-0.791,2.095-1.148,4.273-1.474,6.493c-1.312,8.957-2.337,17.957-3.545,26.932
		c-0.771,5.741-0.432,11.559,2.789,16.256c6.785,9.893,14.56,19.212,21.573,28.938c19.065,26.434,25.175,56.159,22.838,88.104
		c-0.798,10.928-1.086,21.926-2.546,32.767c-1.697,12.569-7.681,23.094-17.729,31.176c-7.864,6.321-20.375,6.949-29.635-0.203
		c-12.855-9.93-16.812-23.441-18.982-38.238c-0.408-2.776-1.001-5.528-1.298-8.315c-0.617-5.806,2.642-9.847,8.469-10.707
		c5.297-0.779,9.503,2.078,10.53,7.649c1.133,6.14,1.783,12.367,2.787,18.531c1.055,6.52,2.595,11.518,7.974,15.283
		c3.609,2.526,7.491,2.436,10.557-0.861c4.724-5.08,7.934-11.117,8.988-17.893C615.568,317.84,616.504,307.422,617.749,296.834z"/>
</g>
</svg>
