<svg id="Empty_Bottle_Filling" data-name="Empty Bottle Filling" xmlns="http://www.w3.org/2000/svg" viewBox="0 0 232.06 575.34"><title>juice</title><rect x="4.5" y="53.75" width="223.06" height="517.09" rx="21.71" ry="21.71" style="fill:#fff6e1"/><polygon points="5.16 441.81 227.6 441.81 225.99 543.42 223.81 561.65 205.85 570.84 23.3 571.13 5.08 555.09 5.16 441.81" style="fill:#fee5c6"/><rect x="7.86" y="228.79" width="217.02" height="214.06" style="fill:#f37120"/><rect x="6.53" y="139.48" width="220.19" height="89.7" style="fill:#ffce00"/><rect x="6.53" y="101.63" width="220.19" height="38.1" style="fill:#8db74a"/><rect x="3.62" y="75.73" width="222.38" height="25.76" style="fill:#ffef9f"/><polygon points="4.74 64.15 21.11 52.56 212.37 54.55 223.62 62.49 225.99 75.73 4.5 75.73 4.74 64.15" style="fill:#f9a01b"/><rect x="32.31" y="4.5" width="167.44" height="49.25" rx="12" ry="12" style="fill:#bed493"/><path d="M216.86,68.27H73.42a16.52,16.52,0,0,1-16.5-16.5V26.52A16.52,16.52,0,0,1,73.42,10H216.86a16.52,16.52,0,0,1,16.5,16.5V51.77A16.52,16.52,0,0,1,216.86,68.27ZM73.42,19a7.51,7.51,0,0,0-7.5,7.5V51.77a7.51,7.51,0,0,0,7.5,7.5H216.86a7.51,7.51,0,0,0,7.5-7.5V26.52a7.51,7.51,0,0,0-7.5-7.5H73.42Z" transform="translate(-29.11 -10.02)" style="fill:#353535"/><path d="M235,585.36H55.32a26.24,26.24,0,0,1-26.21-26.21V85.48A26.24,26.24,0,0,1,55.32,59.27H235a26.24,26.24,0,0,1,26.21,26.21V559.15A26.24,26.24,0,0,1,235,585.36ZM55.32,68.27A17.23,17.23,0,0,0,38.11,85.48V559.15a17.23,17.23,0,0,0,17.21,17.21H235a17.23,17.23,0,0,0,17.21-17.21V85.48A17.23,17.23,0,0,0,235,68.27H55.32Z" transform="translate(-29.11 -10.02)" style="fill:#353535"/></svg>