<svg id="filled-in" xmlns="http://www.w3.org/2000/svg" viewBox="0 0 332.58 63.44"><title>logo-filled</title><path d="M305.41,17a2.33,2.33,0,0,1-2.34-2.28,2.31,2.31,0,0,1,2.34-2.34h26.94a2.26,2.26,0,0,1,2.34,2.28A2.3,2.3,0,0,1,332.35,17H305.41Z" transform="translate(-7.73 -4.41)" style="fill:#8eb84a"/><path d="M316.57,15.66c0-.5,1-0.94,2.28-0.94s2.34,0.41,2.34.94V26.47c0,0.53-1,.94-2.28.94s-2.34-.41-2.34-0.94V15.66Z" transform="translate(-7.73 -4.41)" style="fill:#8eb84a"/><path d="M7.73,27.23a2.37,2.37,0,1,1,4.74,0V43.79H36.7V27.23a2.37,2.37,0,1,1,4.74,0V65a2.37,2.37,0,1,1-4.74,0V48.23H12.47V65a2.37,2.37,0,1,1-4.74,0V27.23Z" transform="translate(-7.73 -4.41)" style="fill:#8eb84a"/><path d="M54,46.25V46.13c0-11.58,8.7-21.72,21.48-21.72S96.8,34.43,96.8,46v0.12c0,11.58-8.7,21.72-21.48,21.72S54,57.83,54,46.25Zm37.92,0V46.13c0-9.54-7-17.34-16.56-17.34S58.89,36.47,58.89,46v0.12c0,9.54,7,17.34,16.56,17.34S91.88,55.79,91.88,46.25Z" transform="translate(-7.73 -4.41)" style="fill:#8eb84a"/><path d="M109.32,27.29a2.38,2.38,0,0,1,2.34-2.34h0.66a2.9,2.9,0,0,1,2.4,1.38l25.5,32.52V27.17a2.31,2.31,0,1,1,4.62,0V65.09a2.13,2.13,0,0,1-2.16,2.22h-0.24A3.25,3.25,0,0,1,140,65.87l-26-33.3V65.09a2.31,2.31,0,1,1-4.62,0V27.29Z" transform="translate(-7.73 -4.41)" style="fill:#8eb84a"/><path d="M161.22,64.73V27.53a2.39,2.39,0,0,1,2.34-2.4h26.1a2.16,2.16,0,1,1,0,4.32H166V43.79h21a2.19,2.19,0,0,1,2.16,2.16A2.15,2.15,0,0,1,187,48.11H166v14.7h24a2.16,2.16,0,1,1,0,4.32h-26.4A2.39,2.39,0,0,1,161.22,64.73Z" transform="translate(-7.73 -4.41)" style="fill:#8eb84a"/><path d="M217.82,50.63l-15.6-21.84a3.07,3.07,0,0,1-.54-1.62,2.45,2.45,0,0,1,2.46-2.34,2.77,2.77,0,0,1,2.28,1.44l13.86,20,14-20a2.67,2.67,0,0,1,2.22-1.44,2.34,2.34,0,0,1,2.34,2.34,3.63,3.63,0,0,1-.66,1.74l-15.54,21.6V65a2.4,2.4,0,0,1-4.8,0V50.63Z" transform="translate(-7.73 -4.41)" style="fill:#8eb84a"/><path d="M249.9,27.53a2.39,2.39,0,0,1,2.34-2.4h12.24c13.2,0,22.32,9.06,22.32,20.88v0.12c0,11.82-9.12,21-22.32,21H252.24a2.39,2.39,0,0,1-2.34-2.4V27.53Zm14.58,35.22c10.62,0,17.4-7.2,17.4-16.5V46.13c0-9.3-6.78-16.62-17.4-16.62h-9.84V62.75h9.84Z" transform="translate(-7.73 -4.41)" style="fill:#8eb84a"/><path d="M297.46,46.25V46.13c0-11.58,8.7-21.72,21.48-21.72s21.36,10,21.36,21.6v0.12c0,11.58-8.7,21.72-21.48,21.72S297.46,57.83,297.46,46.25Zm37.92,0V46.13c0-9.54-7-17.34-16.56-17.34S302.38,36.47,302.38,46v0.12c0,9.54,7,17.34,16.56,17.34S335.38,55.79,335.38,46.25Z" transform="translate(-7.73 -4.41)" style="fill:#8eb84a"/><path d="M77.92,20.08c0.33,0,.66-0.08,1-0.15l0.59-.13,0.84-.21,0.62-.2,0.75-.27,0.63-.26L83,18.55l0.64-.33,0.58-.34c0.22-.14.44-0.27,0.66-0.42l0.45-.33c0.24-.18.48-0.35,0.7-0.54l0.12-.11a15.44,15.44,0,0,0,2.56-2.78l0.06-.09c0.23-.32.44-0.65,0.64-1l0.11-.19c0.19-.33.37-0.68,0.54-1l0.1-.22q0.25-.53.45-1.09l0.08-.21c0.14-.38.26-0.77,0.37-1.17l0-.16c0.11-.42.21-0.85,0.28-1.28,0-.06,0-0.12,0-0.17s0-.19,0-0.29,0-.07,0-0.11A2.31,2.31,0,0,0,89.2,4.41H87.08a11.19,11.19,0,1,1-22.38,0H62.57a2.31,2.31,0,0,0-2.31,2.31s0,0.07,0,.11,0,0.31.07,0.47c0.08,0.43.17,0.85,0.28,1.26l0,0.17c0.11,0.39.23,0.78,0.37,1.15l0.08,0.22c0.14,0.37.29,0.73,0.45,1.08l0.11,0.22c0.17,0.35.35,0.69,0.54,1l0.12,0.19c0.2,0.34.41,0.67,0.64,1L63,13.7a15.46,15.46,0,0,0,2.57,2.78l0.11,0.1c0.23,0.19.47,0.36,0.71,0.54l0.45,0.33c0.21,0.15.44,0.28,0.66,0.42l0.58,0.34,0.65,0.34,0.67,0.31L70,19.13l0.75,0.27,0.62,0.2c0.28,0.08.56,0.15,0.84,0.21l0.59,0.13c0.32,0.06.65,0.1,1,.15l0.5,0.07c0.51,0,1,.08,1.53.08s1,0,1.53-.08Z" transform="translate(-7.73 -4.41)" style="fill:#8eb84a"/><path d="M79.77,6c0-.09.07-0.18,0.11-0.28A2.25,2.25,0,0,0,79.77,6Z" transform="translate(-7.73 -4.41)" style="fill:#fff"/><path d="M82,4.41a2.3,2.3,0,0,0-2.08,1.31h0c0,0.11-.08.21-0.13,0.32a4.74,4.74,0,0,1-.27.5c-0.06.1-.14,0.2-0.21,0.29L79,7.14l-0.23.25a4.76,4.76,0,0,1-.37.33l-0.18.15a4.44,4.44,0,0,1-.62.37l-0.21.09a4.06,4.06,0,0,1-.52.19l-0.22.06a3.32,3.32,0,0,1-1.54,0l-0.22-.06a4.09,4.09,0,0,1-.52-0.19l-0.21-.09a4.45,4.45,0,0,1-.62-0.37l-0.18-.15A4.76,4.76,0,0,1,73,7.39l-0.23-.25-0.24-.3c-0.07-.1-0.15-0.19-0.21-0.29A4.68,4.68,0,0,1,72,6c0-.1-0.09-0.2-0.13-0.31h0a2.3,2.3,0,0,0-2.08-1.31H64.69a11.19,11.19,0,1,0,22.38,0H82Z" transform="translate(-7.73 -4.41)" style="fill:#bfd59b"/><circle cx="317.12" cy="38" r="1.54" style="fill:#bfd59b"/><circle cx="322.79" cy="39.54" r="1.54" style="fill:#bfd59b"/></svg>